# xmcd
#
# Track frame offsets:
#	150
#	18230
#	32845
#	48775
#	65730
#	84170
#	99580
#	114770
#	127070
#	143205
#	163055
#	178420
#	195665
#	216195
#	231735
#	243825
#	257695
#	274335
#
# Disc length: 3878 seconds
#
# Revision: 1
# Processed by: cddbd v1.5.1PL0 Copyright (c) Steve Scherf et al.
# Submitted via: audiograbber 1.83.01
#
DISCID=060f2412
DTITLE=Various Artist - Duck's 5
DYEAR=1900
DGENRE=Beach Music
TTITLE0=Screamin' Jay Hawkins - Fourteen Wives
TTITLE1=Norma Lewis - When Loving You
TTITLE2=Bert Wills - Three Hours Past Midnight
TTITLE3=Mosley and Johnson - Show Me
TTITLE4=H-Bomb Ferguson - Shake Your Apple Tree
TTITLE5=James Bradley - Let's Do It Together
TTITLE6=The Southside Jukes - Cool, Cool Place
TTITLE7=Sally Windhorn - You Bring Out the Boogie In Me
TTITLE8=Earl Thomas - Won't Be Around
TTITLE9=Herb Reed - Hung Up Over You
TTITLE10=Terraplane Blues - Long Tall Texan
TTITLE11=Mosley and Johnson - Savin' Up
TTITLE12=Norma Lewis - Maybe This Time
TTITLE13=The Southside Jukes - Rocket Sixty-Nine
TTITLE14=Lena Zavaroni - Ma! (He's Making Eyes At Me)
TTITLE15=Karla Garrison - This Could Be The Night
TTITLE16=Sally Windhorn - Twenty-Nine Ways
TTITLE17=The Shaw Singers - Everyday
EXTD=
EXTT0=
EXTT1=
EXTT2=
EXTT3=
EXTT4=
EXTT5=
EXTT6=
EXTT7=
EXTT8=
EXTT9=
EXTT10=
EXTT11=
EXTT12=
EXTT13=
EXTT14=
EXTT15=
EXTT16=
EXTT17=
PLAYORDER=
